<?xml version="1.0" encoding="iso-8859-1"?>
<!-- Generator: Adobe Illustrator 19.0.0, SVG Export Plug-In . SVG Version: 6.00 Build 0)  -->
<svg version="1.1" id="Layer_1" xmlns="http://www.w3.org/2000/svg" xmlns:xlink="http://www.w3.org/1999/xlink" x="0px" y="0px"
	 viewBox="0 0 512 512" style="enable-background:new 0 0 512 512;" xml:space="preserve">
<g>
	<g>
		<path d="M444.042,417.594c5.08,0,9.195-4.117,9.195-9.195V9.195c0-5.078-4.116-9.195-9.195-9.195H67.958
			c-5.08,0-9.195,4.117-9.195,9.195v493.609c0,5.078,4.116,9.195,9.195,9.195h376.083c5.08,0,9.195-4.117,9.195-9.195V449.53
			c0-5.078-4.116-9.195-9.195-9.195s-9.195,4.117-9.195,9.195v44.079H77.153V18.391h357.693v390.008
			C434.847,413.477,438.963,417.594,444.042,417.594z"/>
	</g>
</g>
<g>
	<g>
		<path d="M404.866,178.155H107.135c-5.08,0-9.195,4.117-9.195,9.195v276.278c0,5.078,4.116,9.195,9.195,9.195h297.732
			c5.08,0,9.195-4.117,9.195-9.195V187.351C414.062,182.272,409.946,178.155,404.866,178.155z M172.372,454.434H116.33v-50.679
			h56.042V454.434z M172.372,385.363H116.33v-50.678h56.042V385.363z M172.372,316.295H116.33v-50.679h56.042V316.295z
			 M172.372,247.225H116.33v-50.679h56.042V247.225z M246.806,454.434h-56.043v-50.679h56.043V454.434z M246.806,385.363h-56.043
			v-50.678h56.043V385.363z M246.806,316.295h-56.043v-50.679h56.043V316.295z M246.806,247.225h-56.043v-50.679h56.043V247.225z
			 M321.238,454.434h-56.042v-50.679h56.042V454.434z M321.238,385.365h-56.042v-50.678h56.042V385.365z M321.238,316.295h-56.042
			v-50.679h56.042V316.295z M321.238,247.225h-56.042v-50.679h56.042V247.225z M339.628,196.546h56.043v50.679h-56.043V196.546z
			 M395.672,454.433h-56.043v-50.679h56.043V454.433z M395.672,385.363h-56.043v-50.678h56.043V385.363z M395.672,316.295h-56.043
			v-50.679h56.043V316.295z"/>
	</g>
</g>
<g>
	<g>
		<path d="M414.062,48.37c0-5.078-4.116-9.195-9.195-9.195H107.135c-5.08,0-9.195,4.117-9.195,9.195v92.265
			c0,5.078,4.116,9.195,9.195,9.195h42.494c5.08,0,9.195-4.117,9.195-9.195s-4.116-9.195-9.195-9.195H116.33V57.566h279.342v73.875
			H190.76c-5.08,0-9.195,4.117-9.195,9.195s4.116,9.195,9.195,9.195h214.107c5.08,0,9.195-4.117,9.195-9.195V48.37H414.062z"/>
	</g>
</g>
<g>
	<g>
		<path d="M374.876,97.568h-23.503c-5.08,0-9.195,4.117-9.195,9.195s4.116,9.195,9.195,9.195h23.503c5.08,0,9.195-4.117,9.195-9.195
			S379.955,97.568,374.876,97.568z"/>
	</g>
</g>
<g>
</g>
<g>
</g>
<g>
</g>
<g>
</g>
<g>
</g>
<g>
</g>
<g>
</g>
<g>
</g>
<g>
</g>
<g>
</g>
<g>
</g>
<g>
</g>
<g>
</g>
<g>
</g>
<g>
</g>
</svg>
